<svg width="143" height="22" viewBox="0 0 143 22" fill="none" xmlns="http://www.w3.org/2000/svg">
<path d="M82.8458 1.49495V20.8H78.1522V12.8525H70.8509V20.8H66.1572V1.49495H70.8509V9.05745H78.1522V1.49495H82.8458Z" fill="#122C47"/>
<path d="M84.752 13.1C84.752 11.5233 85.0448 10.1391 85.6304 8.94745C86.2342 7.75578 87.0485 6.83912 88.0733 6.19745C89.098 5.55578 90.2417 5.23495 91.5043 5.23495C92.584 5.23495 93.5264 5.45495 94.3315 5.89495C95.155 6.33495 95.7863 6.91245 96.2255 7.62745V5.45495H100.919V20.8H96.2255V18.6275C95.768 19.3425 95.1275 19.92 94.3041 20.36C93.4989 20.8 92.5565 21.02 91.4769 21.02C90.2325 21.02 89.098 20.6991 88.0733 20.0575C87.0485 19.3975 86.2342 18.4716 85.6304 17.28C85.0448 16.07 84.752 14.6766 84.752 13.1ZM96.2255 13.1274C96.2255 11.9541 95.8961 11.0283 95.2373 10.35C94.5968 9.67162 93.81 9.33245 92.8767 9.33245C91.9435 9.33245 91.1475 9.67162 90.4887 10.35C89.8483 11.01 89.528 11.9266 89.528 13.1C89.528 14.2733 89.8483 15.2083 90.4887 15.905C91.1475 16.5833 91.9435 16.9225 92.8767 16.9225C93.81 16.9225 94.5968 16.5833 95.2373 15.905C95.8961 15.2266 96.2255 14.3008 96.2255 13.1274Z" fill="#122C47"/>
<path d="M125.752 5.45495L121.607 20.8H116.42L114.004 10.8449L111.506 20.8H106.346L102.174 5.45495H106.868L109.036 16.4275L111.616 5.45495H116.584L119.192 16.3725L121.333 5.45495H125.752Z" fill="#122C47"/>
<path d="M136.353 20.8L131.687 14.365V20.8H126.993V0.449951H131.687V11.6974L136.326 5.45495H142.117L135.749 13.155L142.172 20.8H136.353Z" fill="#122C47"/>
<path d="M7.21894 1.49495C9.25013 1.49495 11.0251 1.89828 12.5439 2.70495C14.0628 3.51162 15.2339 4.64828 16.0573 6.11495C16.8991 7.56328 17.32 9.24078 17.32 11.1475C17.32 13.0358 16.8991 14.7133 16.0573 16.18C15.2339 17.6466 14.0536 18.7833 12.5165 19.59C10.9977 20.3966 9.23183 20.8 7.21894 20.8H0V1.49495H7.21894ZM6.91701 16.7299C8.69201 16.7299 10.0736 16.2441 11.0617 15.2725C12.0499 14.3008 12.5439 12.9258 12.5439 11.1475C12.5439 9.36912 12.0499 7.98495 11.0617 6.99495C10.0736 6.00495 8.69201 5.50995 6.91701 5.50995H4.69368V16.7299H6.91701Z" fill="#122C47"/>
<path d="M18.4608 13.1C18.4608 11.5233 18.7536 10.1391 19.3391 8.94745C19.943 7.75578 20.7573 6.83912 21.7821 6.19745C22.8068 5.55578 23.9505 5.23495 25.2131 5.23495C26.2928 5.23495 27.2351 5.45495 28.0403 5.89495C28.8638 6.33495 29.4951 6.91245 29.9342 7.62745V5.45495H34.6279V20.8H29.9342V18.6275C29.4768 19.3425 28.8363 19.92 28.0129 20.36C27.2077 20.8 26.2653 21.02 25.1857 21.02C23.9413 21.02 22.8068 20.6991 21.7821 20.0575C20.7573 19.3975 19.943 18.4716 19.3391 17.28C18.7536 16.07 18.4608 14.6766 18.4608 13.1ZM29.9342 13.1274C29.9342 11.9541 29.6049 11.0283 28.9461 10.35C28.3056 9.67162 27.5188 9.33245 26.5855 9.33245C25.6523 9.33245 24.8563 9.67162 24.1975 10.35C23.5571 11.01 23.2368 11.9266 23.2368 13.1C23.2368 14.2733 23.5571 15.2083 24.1975 15.905C24.8563 16.5833 25.6523 16.9225 26.5855 16.9225C27.5188 16.9225 28.3056 16.5833 28.9461 15.905C29.6049 15.2266 29.9342 14.3008 29.9342 13.1274Z" fill="#122C47"/>
<path d="M46.0111 16.8125V20.8H43.6231C41.9213 20.8 40.5946 20.3875 39.6431 19.5625C38.6915 18.7191 38.2157 17.3533 38.2157 15.465V9.35995H36.3493V5.45495H38.2157V1.71495H42.9094V5.45495H45.9837V9.35995H42.9094V15.52C42.9094 15.9783 43.0192 16.3083 43.2388 16.51C43.4584 16.7116 43.8244 16.8125 44.3367 16.8125H46.0111Z" fill="#122C47"/>
<path d="M47.1434 13.1C47.1434 11.5233 47.4361 10.1391 48.0217 8.94745C48.6256 7.75578 49.4399 6.83912 50.4646 6.19745C51.4894 5.55578 52.633 5.23495 53.8957 5.23495C54.9753 5.23495 55.9177 5.45495 56.7229 5.89495C57.5463 6.33495 58.1776 6.91245 58.6168 7.62745V5.45495H63.3105V20.8H58.6168V18.6275C58.1593 19.3425 57.5189 19.92 56.6954 20.36C55.8903 20.8 54.9479 21.02 53.8682 21.02C52.6239 21.02 51.4894 20.6991 50.4646 20.0575C49.4399 19.3975 48.6256 18.4716 48.0217 17.28C47.4361 16.07 47.1434 14.6766 47.1434 13.1ZM58.6168 13.1274C58.6168 11.9541 58.2874 11.0283 57.6287 10.35C56.9882 9.67162 56.2013 9.33245 55.2681 9.33245C54.3348 9.33245 53.5388 9.67162 52.8801 10.35C52.2396 11.01 51.9194 11.9266 51.9194 13.1C51.9194 14.2733 52.2396 15.2083 52.8801 15.905C53.5388 16.5833 54.3348 16.9225 55.2681 16.9225C56.2013 16.9225 56.9882 16.5833 57.6287 15.905C58.2874 15.2266 58.6168 14.3008 58.6168 13.1274Z" fill="#122C47"/>
</svg>
